<?xml version="1.0" encoding="UTF-8"?>
<svg id="Capa_1" data-name="Capa 1" xmlns="http://www.w3.org/2000/svg" viewBox="0 0 2559.21 162">
  <defs>
    <style>
      .cls-1 {
        fill: #6d5113;
      }

      .cls-2 {
        fill: #f9e3d2;
      }
    </style>
  </defs>
  <path class="cls-2" d="M2547,45v72h-4.66c-4.25,0-8.34.3-12.25.88-6.28.91-12.01,2.52-16.91,4.66-2.39,1.03-4.57,2.19-6.5,3.46-4.02,2.61-7.05,5.66-8.76,9-1.09,2.08-1.65,4.26-1.65,6.52v2.48H77.74v-2.48c0-2.26-.56-4.44-1.65-6.52-1.71-3.34-4.74-6.39-8.76-9-1.94-1.27-4.12-2.43-6.5-3.46-4.9-2.14-10.64-3.75-16.91-4.66-3.91-.58-8.01-.88-12.25-.88h-4.66V45h4.66c4.25,0,8.34-.3,12.25-.88,6.28-.91,12.01-2.52,16.91-4.66,2.39-1.03,4.57-2.19,6.5-3.46,4.02-2.61,7.05-5.66,8.76-9,1.09-2.08,1.65-4.26,1.65-6.52v-2.48h2418.52v2.48c0,2.26.56,4.44,1.65,6.52,1.71,3.34,4.74,6.39,8.76,9,1.94,1.27,4.12,2.43,6.5,3.46,4.9,2.14,10.64,3.75,16.91,4.66,3.91.58,8.01.88,12.25.88h4.66Z"/>
  <path class="cls-1" d="M2530.09,44.12v73.76c-6.28.91-12.01,2.52-16.91,4.66-2.39,1.03-4.57,2.19-6.5,3.46-4.02,2.61-7.05,5.66-8.76,9H76.08c-1.71-3.34-4.74-6.39-8.76-9-1.94-1.27-4.12-2.43-6.5-3.46-4.9-2.14-10.64-3.75-16.91-4.66V44.12c6.28-.91,12.01-2.52,16.91-4.66,2.39-1.03,4.57-2.19,6.5-3.46,4.02-2.61,7.05-5.66,8.76-9h2421.83c1.71,3.34,4.74,6.39,8.76,9,1.94,1.27,4.12,2.43,6.5,3.46,4.9,2.14,10.64,3.75,16.91,4.66Z"/>
  <path class="cls-2" d="M2513.17,39.46v83.08c-2.39,1.03-4.57,2.19-6.5,3.46H67.33c-1.94-1.27-4.12-2.43-6.5-3.46V39.46c2.39-1.03,4.57-2.19,6.5-3.46h2439.35c1.94,1.27,4.12,2.43,6.5,3.46Z"/>
</svg>