<?xml version="1.0" encoding="UTF-8"?>
<svg id="Capa_1" data-name="Capa 1" xmlns="http://www.w3.org/2000/svg" viewBox="0 0 273 117">
  <defs>
    <style>
      .cls-1 {
        fill: #6d5113;
      }

      .cls-2 {
        fill: #f9e3d2;
      }
    </style>
  </defs>
  <path class="cls-2" d="M246,35.43v55.57h-8.3c-.23,0-.47.01-.7.02-5.12.32-9.31,4.06-10.3,8.98-.14.72-.22,1.46-.22,2.22v2.78H42.13v-2.78c0-.76-.08-1.5-.22-2.22-.97-4.86-5.08-8.58-10.13-8.96-.29-.03-.58-.04-.87-.04h-6.91v-55.57h5.78c.68,0,1.35-.06,2-.18,3.98-.71,7.24-3.53,8.57-7.25.42-1.18.65-2.45.65-3.78v-2.22h184.35v2.22c0,1.33.23,2.6.65,3.78,1.55,4.33,5.7,7.43,10.57,7.43h9.43Z"/>
  <path class="cls-1" d="M237,35.43v55.59c-5.12.32-9.31,4.06-10.3,8.98H41.91c-.97-4.86-5.08-8.58-10.13-8.96v-55.79c3.98-.71,7.24-3.53,8.57-7.25h185.65c1.55,4.33,5.7,7.43,10.57,7.43h.43Z"/>
  <rect class="cls-2" x="39.35" y="32" width="190.61" height="62.43" rx="11.22" ry="11.22"/>
</svg>