<?xml version="1.0" encoding="UTF-8"?>
<svg id="Capa_1" data-name="Capa 1" xmlns="http://www.w3.org/2000/svg" viewBox="0 0 2007 504">
  <defs>
    <style>
      .cls-1 {
        fill: #c1af61;
      }

      .cls-2 {
        fill: #3e2d2d;
      }
    </style>
  </defs>
  <path class="cls-2" d="M1989,133.85v240.45c-25.28,3.73-45.05,36.55-45.05,76.52v44.18H91.21v-44.01c0-42.46-22.32-76.88-49.84-76.88h-14.37v-240.09h2.85c27.52,0,49.84-34.43,49.84-76.88v-21.13h1852.74v20.97c0,42.46,22.32,76.88,49.84,76.88h6.73Z"/>
  <path class="cls-1" d="M1970.12,145.07v220.41c-24.78,3.42-44.17,33.51-44.17,70.15v40.5H109.43v-40.34c0-38.92-21.88-70.48-48.87-70.48h-14.09v-220.08h2.8c26.99,0,48.87-31.56,48.87-70.48v-19.37h1816.52v19.22c0,38.92,21.88,70.48,48.87,70.48h6.59Z"/>
  <path class="cls-2" d="M1962.37,154.67v202.88c-24.57,3.15-43.8,30.84-43.8,64.57v37.28H117.32v-37.13c0-35.82-21.7-64.87-48.46-64.87h-13.97v-202.58h2.77c26.76,0,48.46-29.05,48.46-64.87v-17.83h1801.25v17.69c0,35.82,21.7,64.87,48.46,64.87h6.54Z"/>
</svg>