<?xml version="1.0" encoding="UTF-8"?>
<svg id="Capa_1" data-name="Capa 1" xmlns="http://www.w3.org/2000/svg" viewBox="0 0 666 693">
  <defs>
    <style>
      .cls-1 {
        fill: #c1af61;
      }

      .cls-2 {
        fill: #3e2d2d;
      }
    </style>
  </defs>
  <path class="cls-2" d="M581,341c0,91.41,12.64,172.87,32.36,225.63-1.65-.23-3.34-.35-5.06-.35-19.88,0-36,16.12-36,36,0,6.44,1.69,12.49,4.66,17.72H98.98c-1.75,0-3.47-.11-5.16-.33.71-2.82,1.09-5.78,1.09-8.82,0-19.68-15.78-35.67-35.39-35.99,21.41-52.34,35.33-137.32,35.33-233.25s-14.15-182.27-35.85-234.5v-1.58c2.76.68,5.64,1.04,8.61,1.04,19.88,0,36-16.12,36-36,0-5.98-1.45-11.61-4.03-16.57h482.31c-.58,2.57-.89,5.25-.89,8,0,19.88,16.12,36,36,36,1.24,0,2.47-.06,3.68-.19-23.85,51.09-39.68,140.92-39.68,243.19Z"/>
  <path class="cls-1" d="M563.03,340.56c0,88.72,11.78,167.78,30.15,218.99-1.54-.22-3.11-.34-4.71-.34-18.52,0-33.54,15.65-33.54,34.94,0,6.25,1.57,12.12,4.34,17.2H113.9c-1.63,0-3.23-.11-4.81-.32.66-2.74,1.02-5.61,1.02-8.56,0-19.1-14.7-34.62-32.97-34.93,19.95-50.8,32.92-133.28,32.92-226.39s-13.18-176.91-33.4-227.6v-1.53c2.57.66,5.26,1.01,8.02,1.01,18.52,0,33.54-15.65,33.54-34.94,0-5.8-1.35-11.27-3.75-16.08h449.39c-.54,2.49-.83,5.1-.83,7.76,0,19.3,15.02,34.94,33.54,34.94,1.16,0,2.3-.06,3.43-.18-22.22,49.59-36.97,136.77-36.97,236.04Z"/>
  <path class="cls-2" d="M554.39,340.18c0,85.78,11.34,162.23,29.04,211.74-1.48-.22-3-.33-4.54-.33-17.84,0-32.3,15.13-32.3,33.78,0,6.04,1.52,11.72,4.18,16.63H121.87c-1.57,0-3.11-.1-4.63-.31.64-2.65.98-5.42.98-8.28,0-18.47-14.16-33.47-31.76-33.77,19.21-49.12,31.7-128.87,31.7-218.89s-12.7-171.05-32.17-220.06v-1.48c2.48.64,5.06.98,7.73.98,17.84,0,32.3-15.13,32.3-33.78,0-5.61-1.3-10.9-3.62-15.55h432.78c-.52,2.41-.8,4.93-.8,7.51,0,18.66,14.46,33.78,32.3,33.78,1.11,0,2.22-.06,3.3-.18-21.4,47.94-35.61,132.24-35.61,228.22Z"/>
</svg>